ExploreSansMonoVariable_ExtraLight Condensed.ufo
<glyph name="exclam" format="2">
  <advance width="450"/>
  <unicode hex="0021"/>
  <outline>
    <contour>
      <point x="204" y="715" type="line"/>
      <point x="250" y="715" type="line"/>
      <point x="245" y="184" type="line"/>
      <point x="205" y="184" type="line"/>
    </contour>
    <contour>
      <point x="225" y="71" type="curve" smooth="yes"/>
      <point x="257" y="71"/>
      <point x="265" y="46"/>
      <point x="265" y="30" type="curve" smooth="yes"/>
      <point x="265" y="11"/>
      <point x="256" y="-8"/>
      <point x="225" y="-8" type="curve" smooth="yes"/>
      <point x="195" y="-8"/>
      <point x="186" y="11"/>
      <point x="186" y="30" type="curve" smooth="yes"/>
      <point x="186" y="46"/>
      <point x="193" y="71"/>
    </contour>
  </outline>
</glyph>
<glyph name="quotedbl" format="2">
  <advance width="450"/>
  <unicode hex="0022"/>
  <outline>
    <contour>
      <point x="164" y="772" type="line"/>
      <point x="197" y="772" type="line"/>
      <point x="193" y="434" type="line"/>
      <point x="168" y="434" type="line"/>
    </contour>
    <contour>
      <point x="403" y="772" type="line"/>
      <point x="436" y="772" type="line"/>
      <point x="432" y="434" type="line"/>
      <point x="407" y="434" type="line"/>
    </contour>
  </outline>
</glyph>
<glyph name="ampersand" format="2">
  <advance width="450"/>
  <unicode hex="0026"/>
  <outline>
    <contour>
      <point x="237" y="716" type="curve" smooth="yes"/>
      <point x="282" y="716"/>
      <point x="296" y="710"/>
      <point x="334" y="694" type="curve"/>
      <point x="325" y="666" type="line"/>
      <point x="293" y="680"/>
      <point x="280" y="688"/>
      <point x="236" y="688" type="curve" smooth="yes"/>
      <point x="178" y="688"/>
      <point x="154" y="657"/>
      <point x="153" y="598" type="curve" smooth="yes"/>
      <point x="153" y="586"/>
      <point x="153" y="562"/>
      <point x="153" y="530" type="curve" smooth="yes"/>
      <point x="153" y="487"/>
      <point x="165" y="449"/>
      <point x="192" y="403" type="curve" smooth="yes"/>
      <point x="429" y="0" type="line"/>
      <point x="393" y="0" type="line"/>
      <point x="175" y="371" type="line" smooth="yes"/>
      <point x="130" y="448"/>
      <point x="121" y="483"/>
      <point x="121" y="530" type="curve" smooth="yes"/>
      <point x="121" y="561"/>
      <point x="121" y="586"/>
      <point x="121" y="598" type="curve" smooth="yes"/>
      <point x="121" y="671"/>
      <point x="158" y="716"/>
    </contour>
    <contour>
      <point x="161" y="439" type="line"/>
      <point x="173" y="414" type="line"/>
      <point x="153" y="414" type="line" smooth="yes"/>
      <point x="87" y="414"/>
      <point x="56" y="361"/>
      <point x="56" y="279" type="curve" smooth="yes"/>
      <point x="56" y="278"/>
      <point x="56" y="149"/>
      <point x="56" y="148" type="curve" smooth="yes"/>
      <point x="56" y="58"/>
      <point x="87" y="20"/>
      <point x="162" y="20" type="curve" smooth="yes"/>
      <point x="260" y="20"/>
      <point x="285" y="79"/>
      <point x="294" y="150" type="curve" smooth="yes"/>
      <point x="327" y="416" type="line"/>
      <point x="433" y="407" type="line"/>
      <point x="433" y="379" type="line"/>
      <point x="353" y="386" type="line"/>
      <point x="321" y="137" type="line" smooth="yes"/>
      <point x="310" y="50"/>
      <point x="272" y="-8"/>
      <point x="161" y="-8" type="curve" smooth="yes"/>
      <point x="61" y="-8"/>
      <point x="24" y="53"/>
      <point x="24" y="148" type="curve" smooth="yes"/>
      <point x="24" y="149"/>
      <point x="24" y="278"/>
      <point x="24" y="279" type="curve" smooth="yes"/>
      <point x="24" y="371"/>
      <point x="69" y="439"/>
      <point x="141" y="439" type="curve" smooth="yes"/>
    </contour>
  </outline>
</glyph>
<glyph name="parenleft" format="2">
  <advance width="450"/>
  <unicode hex="0028"/>
  <outline>
    <contour>
      <point x="314" y="800" type="curve"/>
      <point x="356" y="800" type="line"/>
      <point x="267" y="714"/>
      <point x="195" y="581"/>
      <point x="195" y="366" type="curve" smooth="yes"/>
      <point x="195" y="181"/>
      <point x="265" y="31"/>
      <point x="354" y="-64" type="curve"/>
      <point x="313" y="-64" type="line"/>
      <point x="231" y="24"/>
      <point x="163" y="158"/>
      <point x="163" y="366" type="curve" smooth="yes"/>
      <point x="163" y="598"/>
      <point x="233" y="714"/>
    </contour>
  </outline>
</glyph>
<glyph name="parenright" format="2">
  <advance width="450"/>
  <unicode hex="0029"/>
  <outline>
    <contour>
      <point x="94" y="800" type="curve"/>
      <point x="136" y="800" type="line"/>
      <point x="217" y="714"/>
      <point x="287" y="598"/>
      <point x="287" y="366" type="curve" smooth="yes"/>
      <point x="287" y="158"/>
      <point x="219" y="24"/>
      <point x="137" y="-64" type="curve"/>
      <point x="96" y="-64" type="line"/>
      <point x="185" y="31"/>
      <point x="255" y="181"/>
      <point x="255" y="366" type="curve" smooth="yes"/>
      <point x="255" y="581"/>
      <point x="183" y="714"/>
    </contour>
  </outline>
</glyph>
<glyph name="asterisk" format="2">
  <advance width="450"/>
  <unicode hex="002A"/>
  <outline>
    <contour>
      <point x="207" y="806" type="line"/>
      <point x="241" y="806" type="line"/>
      <point x="241" y="659" type="line"/>
      <point x="237" y="620" type="line"/>
      <point x="274" y="637" type="line"/>
      <point x="386" y="680" type="line"/>
      <point x="399" y="646" type="line"/>
      <point x="295" y="605" type="line"/>
      <point x="253" y="597" type="line"/>
      <point x="274" y="568" type="line"/>
      <point x="341" y="435" type="line"/>
      <point x="308" y="419" type="line"/>
      <point x="244" y="545" type="line"/>
      <point x="225" y="582" type="line"/>
      <point x="204" y="545" type="line"/>
      <point x="138" y="419" type="line"/>
      <point x="106" y="435" type="line"/>
      <point x="172" y="568" type="line"/>
      <point x="197" y="596" type="line"/>
      <point x="155" y="605" type="line"/>
      <point x="53" y="646" type="line"/>
      <point x="67" y="680" type="line"/>
      <point x="173" y="638" type="line"/>
      <point x="211" y="620" type="line"/>
      <point x="207" y="659" type="line"/>
    </contour>
  </outline>
</glyph>
<glyph name="comma" format="2">
  <advance width="450"/>
  <unicode hex="002C"/>
  <outline>
    <contour>
      <point x="223" y="106" type="line"/>
      <point x="223" y="113" type="line"/>
      <point x="77" y="139" type="line"/>
      <point x="77" y="167" type="line"/>
      <point x="253" y="134" type="line"/>
      <point x="253" y="106" type="line"/>
      <point x="175" y="-143" type="line"/>
      <point x="148" y="-143" type="line"/>
    </contour>
  </outline>
</glyph>
<glyph name="hyphen" format="2">
  <advance width="450"/>
  <unicode hex="002D"/>
  <outline>
    <contour>
      <point x="56" y="280" type="line"/>
      <point x="394" y="280" type="line"/>
      <point x="394" y="252" type="line"/>
      <point x="56" y="252" type="line"/>
    </contour>
  </outline>
</glyph>
<glyph name="period" format="2">
  <advance width="450"/>
  <unicode hex="002E"/>
  <outline>
    <contour>
      <point x="224" y="71" type="curve" smooth="yes"/>
      <point x="247" y="71"/>
      <point x="264" y="55"/>
      <point x="264" y="31" type="curve" smooth="yes"/>
      <point x="264" y="7"/>
      <point x="247" y="-8"/>
      <point x="224" y="-8" type="curve" smooth="yes"/>
      <point x="201" y="-8"/>
      <point x="185" y="7"/>
      <point x="185" y="31" type="curve" smooth="yes"/>
      <point x="185" y="55"/>
      <point x="201" y="71"/>
    </contour>
  </outline>
</glyph>
<glyph name="zero" format="2">
  <advance width="450"/>
  <unicode hex="0030"/>
  <outline>
    <contour>
      <point x="224" y="688" type="curve" smooth="yes"/>
      <point x="100" y="688"/>
      <point x="88" y="572"/>
      <point x="88" y="431" type="curve" smooth="yes"/>
      <point x="88" y="366"/>
      <point x="88" y="353"/>
      <point x="88" y="271" type="curve" smooth="yes"/>
      <point x="88" y="173"/>
      <point x="101" y="21"/>
      <point x="224" y="21" type="curve" smooth="yes"/>
      <point x="349" y="21"/>
      <point x="362" y="172"/>
      <point x="362" y="271" type="curve" smooth="yes"/>
      <point x="362" y="352"/>
      <point x="362" y="365"/>
      <point x="362" y="431" type="curve" smooth="yes"/>
      <point x="362" y="571"/>
      <point x="348" y="688"/>
    </contour>
    <contour>
      <point x="224" y="716" type="curve" smooth="yes"/>
      <point x="370" y="716"/>
      <point x="394" y="591"/>
      <point x="394" y="431" type="curve" smooth="yes"/>
      <point x="394" y="365"/>
      <point x="394" y="356"/>
      <point x="394" y="271" type="curve" smooth="yes"/>
      <point x="394" y="163"/>
      <point x="376" y="-7"/>
      <point x="224" y="-7" type="curve" smooth="yes"/>
      <point x="65" y="-7"/>
      <point x="57" y="163"/>
      <point x="56" y="271" type="curve" smooth="yes"/>
      <point x="56" y="353"/>
      <point x="56" y="366"/>
      <point x="56" y="431" type="curve" smooth="yes"/>
      <point x="56" y="591"/>
      <point x="81" y="716"/>
    </contour>
    <contour>
      <point x="254" y="363" type="curve" smooth="yes"/>
      <point x="254" y="380"/>
      <point x="241" y="393"/>
      <point x="224" y="393" type="curve" smooth="yes"/>
      <point x="207" y="393"/>
      <point x="194" y="380"/>
      <point x="194" y="363" type="curve" smooth="yes"/>
      <point x="194" y="346"/>
      <point x="207" y="333"/>
      <point x="224" y="333" type="curve" smooth="yes"/>
      <point x="241" y="333"/>
      <point x="254" y="346"/>
    </contour>
  </outline>
</glyph>
<glyph name="one" format="2">
  <advance width="450"/>
  <unicode hex="0031"/>
  <outline>
    <contour>
      <point x="218" y="708" type="line"/>
      <point x="253" y="708" type="line"/>
      <point x="253" y="28" type="line"/>
      <point x="386" y="28" type="line"/>
      <point x="386" y="0" type="line"/>
      <point x="67" y="0" type="line"/>
      <point x="67" y="28" type="line"/>
      <point x="221" y="28" type="line"/>
      <point x="221" y="680" type="line"/>
      <point x="74" y="617" type="line"/>
      <point x="74" y="648" type="line"/>
    </contour>
  </outline>
</glyph>
<glyph name="two" format="2">
  <advance width="450"/>
  <unicode hex="0032"/>
  <outline>
    <contour>
      <point x="67" y="658" type="line"/>
      <point x="102" y="686"/>
      <point x="143" y="716"/>
      <point x="214" y="716" type="curve" smooth="yes"/>
      <point x="325" y="716"/>
      <point x="386" y="643"/>
      <point x="386" y="542" type="curve" smooth="yes"/>
      <point x="386" y="541"/>
      <point x="386" y="527"/>
      <point x="386" y="526" type="curve" smooth="yes"/>
      <point x="386" y="445"/>
      <point x="344" y="384"/>
      <point x="285" y="296" type="curve" smooth="yes"/>
      <point x="271" y="275"/>
      <point x="105" y="29"/>
      <point x="104" y="28" type="curve"/>
      <point x="408" y="28" type="line"/>
      <point x="410" y="0" type="line"/>
      <point x="69" y="0" type="line"/>
      <point x="69" y="28" type="line"/>
      <point x="256" y="309" type="line" smooth="yes"/>
      <point x="332" y="423"/>
      <point x="354" y="454"/>
      <point x="354" y="526" type="curve" smooth="yes"/>
      <point x="354" y="526"/>
      <point x="354" y="541"/>
      <point x="354" y="542" type="curve" smooth="yes"/>
      <point x="354" y="633"/>
      <point x="305" y="688"/>
      <point x="214" y="688" type="curve" smooth="yes"/>
      <point x="145" y="688"/>
      <point x="115" y="659"/>
      <point x="82" y="634" type="curve"/>
    </contour>
  </outline>
</glyph>
<glyph name="three" format="2">
  <advance width="450"/>
  <unicode hex="0033"/>
  <outline>
    <contour>
      <point x="87" y="708" type="line"/>
      <point x="370" y="708" type="line"/>
      <point x="370" y="680" type="line"/>
      <point x="219" y="420" type="line"/>
      <point x="335" y="420"/>
      <point x="393" y="359"/>
      <point x="393" y="253" type="curve" smooth="yes"/>
      <point x="393" y="215"/>
      <point x="393" y="213"/>
      <point x="393" y="181" type="curve"/>
      <point x="393" y="70"/>
      <point x="343" y="-8"/>
      <point x="222" y="-8" type="curve" smooth="yes"/>
      <point x="128" y="-8"/>
      <point x="93" y="27"/>
      <point x="48" y="66" type="curve"/>
      <point x="66" y="88" type="line"/>
      <point x="116" y="43"/>
      <point x="148" y="20"/>
      <point x="219" y="20" type="curve" smooth="yes"/>
      <point x="319" y="20"/>
      <point x="361" y="79"/>
      <point x="361" y="182" type="curve" smooth="yes"/>
      <point x="361" y="215"/>
      <point x="361" y="216"/>
      <point x="361" y="254" type="curve" smooth="yes"/>
      <point x="361" y="338"/>
      <point x="325" y="392"/>
      <point x="218" y="392" type="curve" smooth="yes"/>
      <point x="187" y="392" type="line"/>
      <point x="184" y="421" type="line"/>
      <point x="332" y="680" type="line"/>
      <point x="87" y="680" type="line"/>
    </contour>
  </outline>
</glyph>
<glyph name="four" format="2">
  <advance width="450"/>
  <unicode hex="0034"/>
  <outline>
    <contour>
      <point x="231" y="708" type="line"/>
      <point x="263" y="708" type="line"/>
      <point x="103" y="214" type="line"/>
      <point x="288" y="214" type="line"/>
      <point x="288" y="418" type="line"/>
      <point x="320" y="418" type="line"/>
      <point x="320" y="214" type="line"/>
      <point x="401" y="214" type="line"/>
      <point x="401" y="186" type="line"/>
      <point x="320" y="186" type="line"/>
      <point x="320" y="0" type="line"/>
      <point x="288" y="0" type="line"/>
      <point x="288" y="186" type="line"/>
      <point x="70" y="186" type="line"/>
      <point x="70" y="213" type="line"/>
    </contour>
  </outline>
</glyph>
<glyph name="five" format="2">
  <advance width="450"/>
  <unicode hex="0035"/>
  <outline>
    <contour>
      <point x="93" y="708" type="line"/>
      <point x="369" y="708" type="line"/>
      <point x="369" y="680" type="line"/>
      <point x="122" y="680" type="line"/>
      <point x="115" y="376" type="line"/>
      <point x="137" y="403"/>
      <point x="167" y="433"/>
      <point x="237" y="433" type="curve" smooth="yes"/>
      <point x="349" y="433"/>
      <point x="383" y="345"/>
      <point x="383" y="243" type="curve" smooth="yes"/>
      <point x="383" y="241"/>
      <point x="383" y="180"/>
      <point x="383" y="179" type="curve" smooth="yes"/>
      <point x="383" y="73"/>
      <point x="332" y="-8"/>
      <point x="220" y="-8" type="curve" smooth="yes"/>
      <point x="127" y="-8"/>
      <point x="98" y="15"/>
      <point x="57" y="53" type="curve"/>
      <point x="76" y="77" type="line"/>
      <point x="114" y="37"/>
      <point x="148" y="20"/>
      <point x="220" y="20" type="curve" smooth="yes"/>
      <point x="312" y="20"/>
      <point x="351" y="87"/>
      <point x="351" y="179" type="curve" smooth="yes"/>
      <point x="351" y="181"/>
      <point x="351" y="241"/>
      <point x="351" y="243" type="curve" smooth="yes"/>
      <point x="351" y="319"/>
      <point x="333" y="405"/>
      <point x="232" y="405" type="curve" smooth="yes"/>
      <point x="168" y="405"/>
      <point x="136" y="376"/>
      <point x="109" y="348" type="curve"/>
      <point x="85" y="348" type="line"/>
    </contour>
  </outline>
</glyph>
<glyph name="six" format="2">
  <advance width="450"/>
  <unicode hex="0036"/>
  <outline>
    <contour>
      <point x="322" y="716" type="curve"/>
      <point x="330" y="690" type="line"/>
      <point x="189" y="648"/>
      <point x="96" y="527"/>
      <point x="97" y="340" type="curve"/>
      <point x="110" y="387"/>
      <point x="154" y="439"/>
      <point x="232" y="439" type="curve" smooth="yes"/>
      <point x="324" y="439"/>
      <point x="386" y="384"/>
      <point x="386" y="265" type="curve" smooth="yes"/>
      <point x="386" y="264"/>
      <point x="386" y="227"/>
      <point x="386" y="172" type="curve" smooth="yes"/>
      <point x="386" y="66"/>
      <point x="338" y="-8"/>
      <point x="225" y="-8" type="curve" smooth="yes"/>
      <point x="115" y="-8"/>
      <point x="64" y="66"/>
      <point x="64" y="172" type="curve" smooth="yes"/>
      <point x="64" y="312"/>
      <point x="64" y="321"/>
      <point x="64" y="322" type="curve" smooth="yes"/>
      <point x="64" y="560"/>
      <point x="177" y="676"/>
    </contour>
    <contour>
      <point x="232" y="411" type="curve" smooth="yes"/>
      <point x="162" y="411"/>
      <point x="129" y="371"/>
      <point x="97" y="315" type="curve"/>
      <point x="97" y="315"/>
      <point x="97" y="172"/>
      <point x="97" y="172" type="curve"/>
      <point x="97" y="89"/>
      <point x="129" y="20"/>
      <point x="226" y="20" type="curve" smooth="yes"/>
      <point x="332" y="20"/>
      <point x="354" y="89"/>
      <point x="354" y="172" type="curve" smooth="yes"/>
      <point x="354" y="228"/>
      <point x="354" y="264"/>
      <point x="354" y="265" type="curve" smooth="yes"/>
      <point x="354" y="366"/>
      <point x="309" y="411"/>
    </contour>
  </outline>
</glyph>
<glyph name="seven" format="2">
  <advance width="450"/>
  <unicode hex="0037"/>
  <outline>
    <contour>
      <point x="73" y="708" type="line"/>
      <point x="385" y="708" type="line"/>
      <point x="385" y="680" type="line"/>
      <point x="170" y="0" type="line"/>
      <point x="141" y="0" type="line"/>
      <point x="355" y="680" type="line"/>
      <point x="73" y="680" type="line"/>
    </contour>
  </outline>
</glyph>
<glyph name="eight" format="2">
  <advance width="450"/>
  <unicode hex="0038"/>
  <outline>
    <contour>
      <point x="228" y="716" type="curve" smooth="yes"/>
      <point x="326" y="716"/>
      <point x="382" y="657"/>
      <point x="382" y="569" type="curve" smooth="yes"/>
      <point x="382" y="528"/>
      <point x="382" y="528"/>
      <point x="382" y="497" type="curve" smooth="yes"/>
      <point x="382" y="434"/>
      <point x="340" y="381"/>
      <point x="265" y="370" type="curve"/>
      <point x="330" y="370"/>
      <point x="398" y="322"/>
      <point x="398" y="222" type="curve" smooth="yes"/>
      <point x="398" y="188"/>
      <point x="398" y="183"/>
      <point x="398" y="145" type="curve" smooth="yes"/>
      <point x="398" y="59"/>
      <point x="354" y="-8"/>
      <point x="228" y="-8" type="curve" smooth="yes"/>
      <point x="110" y="-8"/>
      <point x="52" y="62"/>
      <point x="52" y="145" type="curve" smooth="yes"/>
      <point x="52" y="182"/>
      <point x="52" y="188"/>
      <point x="52" y="222" type="curve" smooth="yes"/>
      <point x="52" y="324"/>
      <point x="119" y="364"/>
      <point x="183" y="370" type="curve"/>
      <point x="116" y="381"/>
      <point x="68" y="430"/>
      <point x="68" y="497" type="curve" smooth="yes"/>
      <point x="68" y="527"/>
      <point x="68" y="528"/>
      <point x="68" y="569" type="curve" smooth="yes"/>
      <point x="68" y="659"/>
      <point x="129" y="716"/>
    </contour>
    <contour>
      <point x="228" y="688" type="curve" smooth="yes"/>
      <point x="140" y="688"/>
      <point x="99" y="632"/>
      <point x="100" y="569" type="curve" smooth="yes"/>
      <point x="100" y="528"/>
      <point x="100" y="528"/>
      <point x="100" y="497" type="curve" smooth="yes"/>
      <point x="100" y="437"/>
      <point x="152" y="385"/>
      <point x="228" y="385" type="curve" smooth="yes"/>
      <point x="307" y="385"/>
      <point x="350" y="436"/>
      <point x="350" y="497" type="curve" smooth="yes"/>
      <point x="350" y="528"/>
      <point x="350" y="528"/>
      <point x="350" y="569" type="curve" smooth="yes"/>
      <point x="350" y="633"/>
      <point x="317" y="688"/>
    </contour>
    <contour>
      <point x="228" y="357" type="curve" smooth="yes"/>
      <point x="145" y="357"/>
      <point x="84" y="309"/>
      <point x="84" y="222" type="curve" smooth="yes"/>
      <point x="84" y="188"/>
      <point x="84" y="183"/>
      <point x="84" y="145" type="curve" smooth="yes"/>
      <point x="84" y="80"/>
      <point x="124" y="20"/>
      <point x="228" y="20" type="curve" smooth="yes"/>
      <point x="338" y="20"/>
      <point x="366" y="80"/>
      <point x="366" y="145" type="curve" smooth="yes"/>
      <point x="366" y="183"/>
      <point x="366" y="188"/>
      <point x="366" y="222" type="curve" smooth="yes"/>
      <point x="366" y="306"/>
      <point x="316" y="357"/>
    </contour>
  </outline>
</glyph>
<glyph name="nine" format="2">
  <advance width="450"/>
  <unicode hex="0039"/>
  <outline>
    <contour>
      <point x="109" y="19" type="line"/>
      <point x="241" y="63"/>
      <point x="354" y="118"/>
      <point x="354" y="375" type="curve"/>
      <point x="341" y="312"/>
      <point x="293" y="261"/>
      <point x="210" y="261" type="curve" smooth="yes"/>
      <point x="108" y="261"/>
      <point x="64" y="331"/>
      <point x="64" y="433" type="curve" smooth="yes"/>
      <point x="64" y="486"/>
      <point x="64" y="487"/>
      <point x="64" y="532" type="curve" smooth="yes"/>
      <point x="64" y="626"/>
      <point x="111" y="716"/>
      <point x="226" y="716" type="curve" smooth="yes"/>
      <point x="341" y="716"/>
      <point x="386" y="626"/>
      <point x="386" y="532" type="curve" smooth="yes"/>
      <point x="386" y="432"/>
      <point x="386" y="431"/>
      <point x="386" y="429" type="curve" smooth="yes"/>
      <point x="386" y="100"/>
      <point x="267" y="42"/>
      <point x="118" y="-8" type="curve"/>
    </contour>
    <contour>
      <point x="226" y="688" type="curve" smooth="yes"/>
      <point x="121" y="688"/>
      <point x="97" y="605"/>
      <point x="97" y="532" type="curve" smooth="yes"/>
      <point x="97" y="487"/>
      <point x="97" y="486"/>
      <point x="97" y="433" type="curve" smooth="yes"/>
      <point x="97" y="354"/>
      <point x="120" y="289"/>
      <point x="210" y="289" type="curve" smooth="yes"/>
      <point x="280" y="289"/>
      <point x="321" y="319"/>
      <point x="354" y="404" type="curve"/>
      <point x="354" y="532" type="line"/>
      <point x="354" y="605"/>
      <point x="327" y="688"/>
    </contour>
  </outline>
</glyph>
<glyph name="colon" format="2">
  <advance width="450"/>
  <unicode hex="003A"/>
  <outline>
    <contour>
      <point x="225" y="528" type="curve" smooth="yes"/>
      <point x="248" y="528"/>
      <point x="265" y="512"/>
      <point x="265" y="488" type="curve" smooth="yes"/>
      <point x="265" y="464"/>
      <point x="248" y="449"/>
      <point x="225" y="449" type="curve" smooth="yes"/>
      <point x="202" y="449"/>
      <point x="186" y="464"/>
      <point x="186" y="488" type="curve" smooth="yes"/>
      <point x="186" y="512"/>
      <point x="202" y="528"/>
    </contour>
    <contour>
      <point x="225" y="71" type="curve" smooth="yes"/>
      <point x="248" y="71"/>
      <point x="265" y="55"/>
      <point x="265" y="31" type="curve" smooth="yes"/>
      <point x="265" y="7"/>
      <point x="248" y="-8"/>
      <point x="225" y="-8" type="curve" smooth="yes"/>
      <point x="202" y="-8"/>
      <point x="186" y="7"/>
      <point x="186" y="31" type="curve" smooth="yes"/>
      <point x="186" y="55"/>
      <point x="202" y="71"/>
    </contour>
  </outline>
</glyph>
<glyph name="A" format="2">
  <advance width="450"/>
  <unicode hex="0041"/>
  <anchor x="240" y="881" name="AccentCenter"/>
  <outline>
    <contour>
      <point x="212" y="708" type="line"/>
      <point x="264" y="708" type="line"/>
      <point x="426" y="0" type="line"/>
      <point x="393" y="0" type="line"/>
      <point x="344" y="214" type="line"/>
      <point x="111" y="214" type="line"/>
      <point x="56" y="0" type="line"/>
      <point x="24" y="0" type="line"/>
    </contour>
    <contour>
      <point x="229" y="678" type="line"/>
      <point x="120" y="242" type="line"/>
      <point x="339" y="242" type="line"/>
      <point x="246" y="678" type="line"/>
    </contour>
  </outline>
</glyph>
<glyph name="B" format="2">
  <advance width="450"/>
  <unicode hex="0042"/>
  <outline>
    <contour>
      <point x="80" y="708" type="line"/>
      <point x="229" y="708" type="line" smooth="yes"/>
      <point x="329" y="708"/>
      <point x="372" y="638"/>
      <point x="372" y="557" type="curve" smooth="yes"/>
      <point x="372" y="529"/>
      <point x="372" y="537"/>
      <point x="372" y="509" type="curve" smooth="yes"/>
      <point x="372" y="431"/>
      <point x="335" y="385"/>
      <point x="266" y="375" type="curve"/>
      <point x="340" y="368"/>
      <point x="394" y="314"/>
      <point x="394" y="220" type="curve" smooth="yes"/>
      <point x="394" y="195"/>
      <point x="394" y="205"/>
      <point x="394" y="157" type="curve" smooth="yes"/>
      <point x="394" y="71"/>
      <point x="349" y="0"/>
      <point x="235" y="0" type="curve" smooth="yes"/>
      <point x="80" y="0" type="line"/>
    </contour>
    <contour>
      <point x="112" y="680" type="line"/>
      <point x="112" y="387" type="line"/>
      <point x="229" y="387" type="line" smooth="yes"/>
      <point x="301" y="387"/>
      <point x="343" y="431"/>
      <point x="343" y="509" type="curve" smooth="yes"/>
      <point x="343" y="537"/>
      <point x="343" y="529"/>
      <point x="343" y="557" type="curve" smooth="yes"/>
      <point x="343" y="619"/>
      <point x="313" y="680"/>
      <point x="229" y="680" type="curve" smooth="yes"/>
    </contour>
    <contour>
      <point x="112" y="362" type="line"/>
      <point x="112" y="28" type="line"/>
      <point x="235" y="28" type="line" smooth="yes"/>
      <point x="326" y="28"/>
      <point x="362" y="82"/>
      <point x="362" y="157" type="curve" smooth="yes"/>
      <point x="362" y="205"/>
      <point x="362" y="195"/>
      <point x="362" y="220" type="curve" smooth="yes"/>
      <point x="362" y="308"/>
      <point x="309" y="362"/>
      <point x="229" y="362" type="curve" smooth="yes"/>
    </contour>
  </outline>
</glyph>
<glyph name="C" format="2">
  <advance width="450"/>
  <unicode hex="0043"/>
  <outline>
    <contour>
      <point x="242" y="716" type="curve" smooth="yes"/>
      <point x="306" y="716"/>
      <point x="336" y="697"/>
      <point x="373" y="668" type="curve"/>
      <point x="354" y="643" type="line"/>
      <point x="326" y="666"/>
      <point x="296" y="688"/>
      <point x="242" y="688" type="curve" smooth="yes"/>
      <point x="114" y="688"/>
      <point x="96" y="597"/>
      <point x="96" y="488" type="curve" smooth="yes"/>
      <point x="96" y="362"/>
      <point x="96" y="273"/>
      <point x="96" y="220" type="curve" smooth="yes"/>
      <point x="96" y="110"/>
      <point x="113" y="20"/>
      <point x="240" y="20" type="curve" smooth="yes"/>
      <point x="298" y="20"/>
      <point x="325" y="31"/>
      <point x="370" y="60" type="curve"/>
      <point x="384" y="35" type="line"/>
      <point x="341" y="9"/>
      <point x="314" y="-8"/>
      <point x="240" y="-8" type="curve" smooth="yes"/>
      <point x="89" y="-8"/>
      <point x="64" y="86"/>
      <point x="64" y="220" type="curve" smooth="yes"/>
      <point x="64" y="273"/>
      <point x="64" y="362"/>
      <point x="64" y="488" type="curve" smooth="yes"/>
      <point x="64" y="619"/>
      <point x="94" y="716"/>
    </contour>
  </outline>
</glyph>
<glyph name="D" format="2">
  <advance width="450"/>
  <unicode hex="0044"/>
  <outline>
    <contour>
      <point x="105" y="680" type="line"/>
      <point x="105" y="28" type="line"/>
      <point x="190" y="28" type="line" smooth="yes"/>
      <point x="287" y="28"/>
      <point x="354" y="82"/>
      <point x="354" y="229" type="curve" smooth="yes"/>
      <point x="354" y="280"/>
      <point x="354" y="440"/>
      <point x="354" y="499" type="curve" smooth="yes"/>
      <point x="354" y="626"/>
      <point x="286" y="680"/>
      <point x="192" y="680" type="curve" smooth="yes"/>
    </contour>
    <contour>
      <point x="72" y="708" type="line"/>
      <point x="192" y="708" type="line" smooth="yes"/>
      <point x="294" y="708"/>
      <point x="386" y="652"/>
      <point x="386" y="499" type="curve" smooth="yes"/>
      <point x="386" y="440"/>
      <point x="386" y="280"/>
      <point x="386" y="229" type="curve" smooth="yes"/>
      <point x="386" y="54"/>
      <point x="295" y="0"/>
      <point x="188" y="0" type="curve" smooth="yes"/>
      <point x="72" y="0" type="line"/>
    </contour>
  </outline>
</glyph>
<glyph name="E" format="2">
  <advance width="450"/>
  <unicode hex="0045"/>
  <anchor x="221" y="880" name="AccentCenter"/>
  <outline>
    <contour>
      <point x="72" y="708" type="line"/>
      <point x="378" y="708" type="line"/>
      <point x="378" y="680" type="line"/>
      <point x="104" y="680" type="line"/>
      <point x="104" y="381" type="line"/>
      <point x="323" y="381" type="line"/>
      <point x="323" y="353" type="line"/>
      <point x="104" y="353" type="line"/>
      <point x="104" y="28" type="line"/>
      <point x="378" y="28" type="line"/>
      <point x="378" y="0" type="line"/>
      <point x="72" y="0" type="line"/>
    </contour>
  </outline>
</glyph>
<glyph name="F" format="2">
  <advance width="450"/>
  <unicode hex="0046"/>
  <outline>
    <contour>
      <point x="72" y="708" type="line"/>
      <point x="390" y="708" type="line"/>
      <point x="390" y="680" type="line"/>
      <point x="104" y="680" type="line"/>
      <point x="104" y="390" type="line"/>
      <point x="325" y="390" type="line"/>
      <point x="325" y="362" type="line"/>
      <point x="104" y="362" type="line"/>
      <point x="104" y="0" type="line"/>
      <point x="72" y="0" type="line"/>
    </contour>
  </outline>
</glyph>
<glyph name="G" format="2">
  <advance width="450"/>
  <unicode hex="0047"/>
  <outline>
    <contour>
      <point x="232" y="716" type="curve" smooth="yes"/>
      <point x="284" y="716"/>
      <point x="337" y="704"/>
      <point x="375" y="679" type="curve"/>
      <point x="361" y="653" type="line"/>
      <point x="329" y="675"/>
      <point x="273" y="688"/>
      <point x="231" y="688" type="curve" smooth="yes"/>
      <point x="128" y="688"/>
      <point x="88" y="631"/>
      <point x="88" y="539" type="curve" smooth="yes"/>
      <point x="88" y="537"/>
      <point x="88" y="159"/>
      <point x="88" y="157" type="curve" smooth="yes"/>
      <point x="88" y="67"/>
      <point x="126" y="20"/>
      <point x="224" y="20" type="curve" smooth="yes"/>
      <point x="279" y="20"/>
      <point x="307" y="30"/>
      <point x="346" y="45" type="curve"/>
      <point x="346" y="348" type="line"/>
      <point x="205" y="348" type="line"/>
      <point x="205" y="376" type="line"/>
      <point x="378" y="376" type="line"/>
      <point x="378" y="24" type="line"/>
      <point x="327" y="5"/>
      <point x="298" y="-8"/>
      <point x="224" y="-8" type="curve" smooth="yes"/>
      <point x="109" y="-8"/>
      <point x="56" y="44"/>
      <point x="56" y="157" type="curve" smooth="yes"/>
      <point x="56" y="159"/>
      <point x="56" y="537"/>
      <point x="56" y="539" type="curve" smooth="yes"/>
      <point x="56" y="641"/>
      <point x="104" y="716"/>
    </contour>
  </outline>
</glyph>
<glyph name="H" format="2">
  <advance width="450"/>
  <unicode hex="0048"/>
  <outline>
    <contour>
      <point x="72" y="708" type="line"/>
      <point x="104" y="708" type="line"/>
      <point x="104" y="393" type="line"/>
      <point x="346" y="393" type="line"/>
      <point x="346" y="708" type="line"/>
      <point x="378" y="708" type="line"/>
      <point x="378" y="0" type="line"/>
      <point x="346" y="0" type="line"/>
      <point x="346" y="365" type="line"/>
      <point x="104" y="365" type="line"/>
      <point x="104" y="0" type="line"/>
      <point x="72" y="0" type="line"/>
    </contour>
  </outline>
</glyph>
<glyph name="I" format="2">
  <advance width="450"/>
  <unicode hex="0049"/>
  <anchor x="222" y="876" name="AccentCenter"/>
  <outline>
    <contour>
      <point x="64" y="708" type="line"/>
      <point x="386" y="708" type="line"/>
      <point x="386" y="683" type="line"/>
      <point x="240" y="683" type="line"/>
      <point x="240" y="25" type="line"/>
      <point x="386" y="25" type="line"/>
      <point x="386" y="0" type="line"/>
      <point x="64" y="0" type="line"/>
      <point x="64" y="25" type="line"/>
      <point x="208" y="25" type="line"/>
      <point x="208" y="683" type="line"/>
      <point x="64" y="683" type="line"/>
    </contour>
  </outline>
</glyph>
<glyph name="J" format="2">
  <advance width="450"/>
  <unicode hex="004A"/>
  <outline>
    <contour>
      <point x="126" y="708" type="line"/>
      <point x="378" y="708" type="line"/>
      <point x="378" y="156" type="line" smooth="yes"/>
      <point x="378" y="54"/>
      <point x="329" y="-8"/>
      <point x="208" y="-8" type="curve" smooth="yes"/>
      <point x="140" y="-8"/>
      <point x="92" y="15"/>
      <point x="50" y="50" type="curve"/>
      <point x="68" y="75" type="line"/>
      <point x="115" y="35"/>
      <point x="160" y="20"/>
      <point x="208" y="20" type="curve" smooth="yes"/>
      <point x="309" y="20"/>
      <point x="346" y="60"/>
      <point x="346" y="156" type="curve" smooth="yes"/>
      <point x="346" y="680" type="line"/>
      <point x="126" y="680" type="line"/>
    </contour>
  </outline>
</glyph>
<glyph name="K" format="2">
  <advance width="450"/>
  <unicode hex="004B"/>
  <outline>
    <contour>
      <point x="72" y="708" type="line"/>
      <point x="104" y="708" type="line"/>
      <point x="104" y="373" type="line"/>
      <point x="173" y="373" type="line"/>
      <point x="370" y="708" type="line"/>
      <point x="403" y="708" type="line"/>
      <point x="198" y="358" type="line"/>
      <point x="403" y="0" type="line"/>
      <point x="371" y="0" type="line"/>
      <point x="173" y="344" type="line"/>
      <point x="104" y="344" type="line"/>
      <point x="104" y="0" type="line"/>
      <point x="72" y="0" type="line"/>
    </contour>
  </outline>
</glyph>
<glyph name="L" format="2">
  <advance width="450"/>
  <unicode hex="004C"/>
  <outline>
    <contour>
      <point x="72" y="708" type="line"/>
      <point x="104" y="708" type="line"/>
      <point x="104" y="28" type="line"/>
      <point x="387" y="28" type="line"/>
      <point x="387" y="0" type="line"/>
      <point x="72" y="0" type="line"/>
    </contour>
  </outline>
</glyph>
<glyph name="M" format="2">
  <advance width="450"/>
  <unicode hex="004D"/>
  <outline>
    <contour>
      <point x="72" y="708" type="line"/>
      <point x="111" y="708" type="line"/>
      <point x="228" y="217" type="line"/>
      <point x="338" y="708" type="line"/>
      <point x="378" y="708" type="line"/>
      <point x="378" y="0" type="line"/>
      <point x="346" y="0" type="line"/>
      <point x="346" y="402" type="line"/>
      <point x="356" y="658" type="line"/>
      <point x="256" y="192" type="line"/>
      <point x="199" y="192" type="line"/>
      <point x="94" y="658" type="line"/>
      <point x="104" y="402" type="line"/>
      <point x="104" y="0" type="line"/>
      <point x="72" y="0" type="line"/>
    </contour>
  </outline>
</glyph>
<glyph name="N" format="2">
  <advance width="450"/>
  <unicode hex="004E"/>
  <outline>
    <contour>
      <point x="72" y="708" type="line"/>
      <point x="103" y="708" type="line"/>
      <point x="346" y="88" type="line"/>
      <point x="346" y="708" type="line"/>
      <point x="378" y="708" type="line"/>
      <point x="378" y="0" type="line"/>
      <point x="348" y="0" type="line"/>
      <point x="104" y="626" type="line"/>
      <point x="104" y="0" type="line"/>
      <point x="72" y="0" type="line"/>
    </contour>
  </outline>
</glyph>
<glyph name="O" format="2">
  <advance width="450"/>
  <unicode hex="004F"/>
  <anchor x="227" y="876" name="AccentCenter"/>
  <outline>
    <contour>
      <point x="227" y="716" type="curve" smooth="yes"/>
      <point x="340" y="716"/>
      <point x="394" y="631"/>
      <point x="394" y="520" type="curve" smooth="yes"/>
      <point x="394" y="407"/>
      <point x="394" y="298"/>
      <point x="394" y="188" type="curve" smooth="yes"/>
      <point x="394" y="71"/>
      <point x="341" y="-8"/>
      <point x="227" y="-8" type="curve" smooth="yes"/>
      <point x="111" y="-8"/>
      <point x="56" y="71"/>
      <point x="56" y="188" type="curve" smooth="yes"/>
      <point x="56" y="298"/>
      <point x="56" y="407"/>
      <point x="56" y="519" type="curve" smooth="yes"/>
      <point x="57" y="631"/>
      <point x="112" y="716"/>
    </contour>
    <contour>
      <point x="227" y="688" type="curve" smooth="yes"/>
      <point x="123" y="688"/>
      <point x="88" y="604"/>
      <point x="88" y="520" type="curve" smooth="yes"/>
      <point x="88" y="407"/>
      <point x="88" y="298"/>
      <point x="88" y="188" type="curve" smooth="yes"/>
      <point x="88" y="94"/>
      <point x="122" y="20"/>
      <point x="227" y="20" type="curve" smooth="yes"/>
      <point x="330" y="20"/>
      <point x="362" y="94"/>
      <point x="362" y="188" type="curve" smooth="yes"/>
      <point x="362" y="298"/>
      <point x="362" y="407"/>
      <point x="362" y="520" type="curve" smooth="yes"/>
      <point x="362" y="609"/>
      <point x="329" y="688"/>
    </contour>
  </outline>
</glyph>
<glyph name="P" format="2">
  <advance width="450"/>
  <unicode hex="0050"/>
  <outline>
    <contour>
      <point x="104" y="680" type="line"/>
      <point x="104" y="310" type="line"/>
      <point x="213" y="310" type="line" smooth="yes"/>
      <point x="295" y="310"/>
      <point x="362" y="349"/>
      <point x="362" y="477" type="curve" smooth="yes"/>
      <point x="362" y="478"/>
      <point x="362" y="528"/>
      <point x="362" y="529" type="curve" smooth="yes"/>
      <point x="362" y="644"/>
      <point x="295" y="680"/>
      <point x="213" y="680" type="curve" smooth="yes"/>
    </contour>
    <contour>
      <point x="72" y="708" type="line"/>
      <point x="213" y="708" type="line" smooth="yes"/>
      <point x="312" y="708"/>
      <point x="394" y="656"/>
      <point x="394" y="529" type="curve" smooth="yes"/>
      <point x="394" y="528"/>
      <point x="394" y="478"/>
      <point x="394" y="477" type="curve" smooth="yes"/>
      <point x="394" y="341"/>
      <point x="312" y="282"/>
      <point x="213" y="282" type="curve" smooth="yes"/>
      <point x="104" y="282" type="line"/>
      <point x="104" y="0" type="line"/>
      <point x="72" y="0" type="line"/>
    </contour>
  </outline>
</glyph>
<glyph name="Q" format="2">
  <advance width="450"/>
  <unicode hex="0051"/>
  <outline>
    <contour>
      <point x="226" y="716" type="curve" smooth="yes"/>
      <point x="348" y="716"/>
      <point x="394" y="626"/>
      <point x="394" y="511" type="curve" smooth="yes"/>
      <point x="394" y="384"/>
      <point x="394" y="349"/>
      <point x="394" y="204" type="curve" smooth="yes"/>
      <point x="394" y="112"/>
      <point x="375" y="3"/>
      <point x="240" y="-8" type="curve"/>
      <point x="240" y="-126"/>
      <point x="271" y="-153"/>
      <point x="354" y="-153" type="curve" smooth="yes"/>
      <point x="415" y="-153" type="line"/>
      <point x="417" y="-170" type="line"/>
      <point x="403" y="-176"/>
      <point x="367" y="-184"/>
      <point x="339" y="-184" type="curve" smooth="yes"/>
      <point x="233" y="-184"/>
      <point x="208" y="-125"/>
      <point x="208" y="-8" type="curve"/>
      <point x="74" y="3"/>
      <point x="56" y="112"/>
      <point x="56" y="204" type="curve" smooth="yes"/>
      <point x="56" y="349"/>
      <point x="56" y="384"/>
      <point x="56" y="511" type="curve" smooth="yes"/>
      <point x="56" y="626"/>
      <point x="98" y="716"/>
    </contour>
    <contour>
      <point x="226" y="688" type="curve" smooth="yes"/>
      <point x="116" y="688"/>
      <point x="88" y="603"/>
      <point x="88" y="511" type="curve" smooth="yes"/>
      <point x="88" y="384"/>
      <point x="88" y="349"/>
      <point x="88" y="204" type="curve" smooth="yes"/>
      <point x="88" y="119"/>
      <point x="99" y="20"/>
      <point x="226" y="20" type="curve" smooth="yes"/>
      <point x="353" y="20"/>
      <point x="362" y="120"/>
      <point x="362" y="204" type="curve" smooth="yes"/>
      <point x="362" y="349"/>
      <point x="362" y="384"/>
      <point x="362" y="511" type="curve" smooth="yes"/>
      <point x="362" y="602"/>
      <point x="337" y="688"/>
    </contour>
  </outline>
</glyph>
<glyph name="R" format="2">
  <advance width="450"/>
  <unicode hex="0052"/>
  <outline>
    <contour>
      <point x="72" y="708" type="line"/>
      <point x="198" y="708" type="line" smooth="yes"/>
      <point x="318" y="708"/>
      <point x="393" y="644"/>
      <point x="393" y="529" type="curve" smooth="yes"/>
      <point x="393" y="515"/>
      <point x="393" y="514"/>
      <point x="393" y="501" type="curve" smooth="yes"/>
      <point x="392" y="392"/>
      <point x="322" y="330"/>
      <point x="231" y="321" type="curve"/>
      <point x="377" y="0" type="line"/>
      <point x="338" y="0" type="line"/>
      <point x="196" y="320" type="line"/>
      <point x="104" y="320" type="line"/>
      <point x="104" y="0" type="line"/>
      <point x="72" y="0" type="line"/>
    </contour>
    <contour>
      <point x="104" y="348" type="line"/>
      <point x="187" y="348" type="line" smooth="yes"/>
      <point x="307" y="348"/>
      <point x="360" y="401"/>
      <point x="361" y="501" type="curve" smooth="yes"/>
      <point x="361" y="514"/>
      <point x="361" y="515"/>
      <point x="361" y="529" type="curve" smooth="yes"/>
      <point x="361" y="629"/>
      <point x="304" y="680"/>
      <point x="201" y="680" type="curve" smooth="yes"/>
      <point x="104" y="680" type="line"/>
    </contour>
  </outline>
</glyph>
<glyph name="S" format="2">
  <advance width="450"/>
  <unicode hex="0053"/>
  <outline>
    <contour>
      <point x="235" y="716" type="curve" smooth="yes"/>
      <point x="297" y="716"/>
      <point x="336" y="701"/>
      <point x="387" y="660" type="curve"/>
      <point x="370" y="636" type="line"/>
      <point x="320" y="674"/>
      <point x="292" y="688"/>
      <point x="235" y="688" type="curve" smooth="yes"/>
      <point x="140" y="688"/>
      <point x="91" y="632"/>
      <point x="91" y="549" type="curve" smooth="yes"/>
      <point x="91" y="468"/>
      <point x="118" y="429"/>
      <point x="187" y="393" type="curve" smooth="yes"/>
      <point x="276" y="347" type="line" smooth="yes"/>
      <point x="344" y="312"/>
      <point x="398" y="264"/>
      <point x="398" y="172" type="curve" smooth="yes"/>
      <point x="398" y="63"/>
      <point x="335" y="-8"/>
      <point x="220" y="-8" type="curve" smooth="yes"/>
      <point x="131" y="-8"/>
      <point x="103" y="7"/>
      <point x="44" y="46" type="curve"/>
      <point x="61" y="73" type="line"/>
      <point x="109" y="37"/>
      <point x="145" y="20"/>
      <point x="220" y="20" type="curve" smooth="yes"/>
      <point x="312" y="20"/>
      <point x="366" y="73"/>
      <point x="366" y="172" type="curve" smooth="yes"/>
      <point x="366" y="251"/>
      <point x="319" y="291"/>
      <point x="262" y="320" type="curve" smooth="yes"/>
      <point x="174" y="365" type="line" smooth="yes"/>
      <point x="93" y="406"/>
      <point x="59" y="458"/>
      <point x="59" y="549" type="curve" smooth="yes"/>
      <point x="59" y="643"/>
      <point x="121" y="716"/>
    </contour>
  </outline>
</glyph>
<glyph name="T" format="2">
  <advance width="450"/>
  <unicode hex="0054"/>
  <outline>
    <contour>
      <point x="42" y="708" type="line"/>
      <point x="408" y="708" type="line"/>
      <point x="408" y="680" type="line"/>
      <point x="241" y="680" type="line"/>
      <point x="241" y="0" type="line"/>
      <point x="209" y="0" type="line"/>
      <point x="209" y="680" type="line"/>
      <point x="42" y="680" type="line"/>
    </contour>
  </outline>
</glyph>
<glyph name="U" format="2">
  <advance width="450"/>
  <unicode hex="0055"/>
  <anchor x="225" y="880" name="AccentCenter"/>
  <outline>
    <contour>
      <point x="56" y="708" type="line"/>
      <point x="88" y="708" type="line"/>
      <point x="88" y="172" type="line" smooth="yes"/>
      <point x="88" y="78"/>
      <point x="132" y="20"/>
      <point x="226" y="20" type="curve" smooth="yes"/>
      <point x="319" y="20"/>
      <point x="362" y="78"/>
      <point x="362" y="172" type="curve" smooth="yes"/>
      <point x="362" y="708" type="line"/>
      <point x="394" y="708" type="line"/>
      <point x="394" y="172" type="line" smooth="yes"/>
      <point x="394" y="75"/>
      <point x="345" y="-8"/>
      <point x="226" y="-8" type="curve" smooth="yes"/>
      <point x="106" y="-8"/>
      <point x="56" y="73"/>
      <point x="56" y="172" type="curve" smooth="yes"/>
    </contour>
  </outline>
</glyph>
<glyph name="V" format="2">
  <advance width="450"/>
  <unicode hex="0056"/>
  <outline>
    <contour>
      <point x="36" y="708" type="line"/>
      <point x="70" y="708" type="line"/>
      <point x="224" y="53" type="line"/>
      <point x="379" y="708" type="line"/>
      <point x="414" y="708" type="line"/>
      <point x="242" y="0" type="line"/>
      <point x="206" y="0" type="line"/>
    </contour>
  </outline>
</glyph>
<glyph name="W" format="2">
  <advance width="450"/>
  <unicode hex="0057"/>
  <outline>
    <contour>
      <point x="16" y="708" type="line"/>
      <point x="49" y="708" type="line"/>
      <point x="114" y="44" type="line"/>
      <point x="217" y="552" type="line"/>
      <point x="250" y="552" type="line"/>
      <point x="350" y="44" type="line"/>
      <point x="401" y="708" type="line"/>
      <point x="434" y="708" type="line"/>
      <point x="375" y="0" type="line"/>
      <point x="330" y="0" type="line"/>
      <point x="233" y="488" type="line"/>
      <point x="136" y="0" type="line"/>
      <point x="88" y="0" type="line"/>
    </contour>
  </outline>
</glyph>
<glyph name="X" format="2">
  <advance width="450"/>
  <unicode hex="0058"/>
  <outline>
    <contour>
      <point x="20" y="708" type="line"/>
      <point x="56" y="708" type="line"/>
      <point x="226" y="381" type="line"/>
      <point x="396" y="708" type="line"/>
      <point x="430" y="708" type="line"/>
      <point x="247" y="356" type="line"/>
      <point x="430" y="0" type="line"/>
      <point x="396" y="0" type="line"/>
      <point x="226" y="332" type="line"/>
      <point x="56" y="0" type="line"/>
      <point x="20" y="0" type="line"/>
      <point x="206" y="356" type="line"/>
    </contour>
  </outline>
</glyph>
<glyph name="Y" format="2">
  <advance width="450"/>
  <unicode hex="0059"/>
  <anchor x="282.8" y="880" name="AccentCenter"/>
  <outline>
    <contour>
      <point x="20" y="708" type="line"/>
      <point x="54" y="708" type="line"/>
      <point x="227" y="300" type="line"/>
      <point x="397" y="708" type="line"/>
      <point x="430" y="708" type="line"/>
      <point x="243" y="268" type="line"/>
      <point x="243" y="0" type="line"/>
      <point x="211" y="0" type="line"/>
      <point x="211" y="268" type="line"/>
    </contour>
  </outline>
</glyph>
<glyph name="Z" format="2">
  <advance width="450"/>
  <unicode hex="005A"/>
  <outline>
    <contour>
      <point x="73" y="708" type="line"/>
      <point x="386" y="708" type="line"/>
      <point x="386" y="680" type="line"/>
      <point x="96" y="28" type="line"/>
      <point x="383" y="28" type="line"/>
      <point x="383" y="0" type="line"/>
      <point x="64" y="0" type="line"/>
      <point x="64" y="28" type="line"/>
      <point x="354" y="680" type="line"/>
      <point x="73" y="680" type="line"/>
    </contour>
  </outline>
</glyph>
<glyph name="bracketleft" format="2">
  <advance width="450"/>
  <unicode hex="005B"/>
  <outline>
    <contour>
      <point x="142" y="800" type="line"/>
      <point x="448" y="800" type="line"/>
      <point x="448" y="772" type="line"/>
      <point x="174" y="772" type="line"/>
      <point x="174" y="-36" type="line"/>
      <point x="448" y="-36" type="line"/>
      <point x="448" y="-64" type="line"/>
      <point x="142" y="-64" type="line"/>
    </contour>
  </outline>
</glyph>
<glyph name="bracketright" format="2">
  <advance width="450"/>
  <unicode hex="005D"/>
  <outline>
    <contour>
      <point x="192" y="800" type="line"/>
      <point x="498" y="800" type="line"/>
      <point x="498" y="-64" type="line"/>
      <point x="192" y="-64" type="line"/>
      <point x="192" y="-36" type="line"/>
      <point x="466" y="-36" type="line"/>
      <point x="466" y="772" type="line"/>
      <point x="192" y="772" type="line"/>
    </contour>
  </outline>
</glyph>
<glyph name="a" format="2">
  <advance width="450"/>
  <unicode hex="0061"/>
  <anchor x="224" y="687" name="AccentCenter"/>
  <anchor x="214" y="687" name="Ring"/>
  <outline>
    <contour>
      <point x="221" y="528" type="curve" smooth="yes"/>
      <point x="334" y="528"/>
      <point x="372" y="474"/>
      <point x="372" y="345" type="curve" smooth="yes"/>
      <point x="372" y="28" type="line"/>
      <point x="372" y="28"/>
      <point x="443" y="28"/>
      <point x="443" y="28" type="curve"/>
      <point x="443" y="0" type="line"/>
      <point x="443" y="0"/>
      <point x="340" y="0"/>
      <point x="340" y="0" type="curve" smooth="yes"/>
      <point x="340" y="0"/>
      <point x="340" y="101"/>
      <point x="340" y="101" type="curve"/>
      <point x="312" y="48"/>
      <point x="280" y="-8"/>
      <point x="189" y="-8" type="curve" smooth="yes"/>
      <point x="95" y="-8"/>
      <point x="54" y="45"/>
      <point x="54" y="137" type="curve" smooth="yes"/>
      <point x="54" y="246"/>
      <point x="114" y="286"/>
      <point x="206" y="286" type="curve" smooth="yes"/>
      <point x="340" y="286" type="line"/>
      <point x="340" y="359" type="line" smooth="yes"/>
      <point x="340" y="453"/>
      <point x="315" y="500"/>
      <point x="221" y="500" type="curve" smooth="yes"/>
      <point x="161" y="500"/>
      <point x="139" y="490"/>
      <point x="97" y="472" type="curve"/>
      <point x="87" y="498" type="line"/>
      <point x="132" y="516"/>
      <point x="153" y="528"/>
    </contour>
    <contour>
      <point x="340" y="258" type="line"/>
      <point x="207" y="258" type="line" smooth="yes"/>
      <point x="120" y="258"/>
      <point x="86" y="221"/>
      <point x="86" y="137" type="curve" smooth="yes"/>
      <point x="86" y="61"/>
      <point x="114" y="20"/>
      <point x="190" y="20" type="curve" smooth="yes"/>
      <point x="267" y="20"/>
      <point x="309" y="78"/>
      <point x="340" y="141" type="curve"/>
    </contour>
  </outline>
</glyph>
<glyph name="b" format="2">
  <advance width="450"/>
  <unicode hex="0062"/>
  <outline>
    <contour>
      <point x="72" y="716" type="line"/>
      <point x="104" y="716" type="line"/>
      <point x="104" y="436" type="line"/>
      <point x="121" y="485"/>
      <point x="169" y="528"/>
      <point x="248" y="528" type="curve" smooth="yes"/>
      <point x="333" y="528"/>
      <point x="394" y="468"/>
      <point x="394" y="366" type="curve" smooth="yes"/>
      <point x="394" y="299"/>
      <point x="394" y="224"/>
      <point x="394" y="157" type="curve" smooth="yes"/>
      <point x="394" y="52"/>
      <point x="334" y="-8"/>
      <point x="239" y="-8" type="curve" smooth="yes"/>
      <point x="148" y="-8"/>
      <point x="126" y="34"/>
      <point x="102" y="103" type="curve"/>
      <point x="100" y="0" type="line"/>
      <point x="72" y="0" type="line"/>
    </contour>
    <contour>
      <point x="247" y="500" type="curve" smooth="yes"/>
      <point x="153" y="500"/>
      <point x="117" y="428"/>
      <point x="104" y="381" type="curve"/>
      <point x="104" y="145" type="line"/>
      <point x="125" y="90"/>
      <point x="155" y="20"/>
      <point x="235" y="20" type="curve" smooth="yes"/>
      <point x="328" y="20"/>
      <point x="362" y="83"/>
      <point x="362" y="157" type="curve" smooth="yes"/>
      <point x="362" y="224"/>
      <point x="362" y="299"/>
      <point x="362" y="366" type="curve" smooth="yes"/>
      <point x="362" y="436"/>
      <point x="321" y="500"/>
    </contour>
  </outline>
</glyph>
<glyph name="c" format="2">
  <advance width="450"/>
  <unicode hex="0063"/>
  <outline>
    <contour>
      <point x="235" y="528" type="curve" smooth="yes"/>
      <point x="300" y="528"/>
      <point x="340" y="509"/>
      <point x="383" y="474" type="curve"/>
      <point x="365" y="452" type="line"/>
      <point x="328" y="483"/>
      <point x="287" y="500"/>
      <point x="237" y="500" type="curve" smooth="yes"/>
      <point x="147" y="500"/>
      <point x="88" y="446"/>
      <point x="88" y="325" type="curve" smooth="yes"/>
      <point x="88" y="262"/>
      <point x="88" y="261"/>
      <point x="88" y="200" type="curve" smooth="yes"/>
      <point x="88" y="97"/>
      <point x="140" y="20"/>
      <point x="233" y="20" type="curve" smooth="yes"/>
      <point x="302" y="20"/>
      <point x="343" y="43"/>
      <point x="385" y="70" type="curve"/>
      <point x="402" y="46" type="line"/>
      <point x="357" y="16"/>
      <point x="307" y="-8"/>
      <point x="232" y="-8" type="curve" smooth="yes"/>
      <point x="121" y="-8"/>
      <point x="56" y="74"/>
      <point x="56" y="200" type="curve" smooth="yes"/>
      <point x="56" y="261"/>
      <point x="56" y="262"/>
      <point x="56" y="325" type="curve" smooth="yes"/>
      <point x="56" y="465"/>
      <point x="132" y="528"/>
    </contour>
  </outline>
</glyph>
<glyph name="d" format="2">
  <advance width="450"/>
  <unicode hex="0064"/>
  <outline>
    <contour>
      <point x="362" y="716" type="line"/>
      <point x="394" y="716" type="line"/>
      <point x="394" y="0" type="line"/>
      <point x="366" y="0" type="line"/>
      <point x="364" y="103" type="line"/>
      <point x="340" y="34"/>
      <point x="318" y="-8"/>
      <point x="227" y="-8" type="curve" smooth="yes"/>
      <point x="132" y="-8"/>
      <point x="72" y="52"/>
      <point x="72" y="157" type="curve" smooth="yes"/>
      <point x="72" y="224"/>
      <point x="72" y="299"/>
      <point x="72" y="366" type="curve" smooth="yes"/>
      <point x="72" y="468"/>
      <point x="133" y="528"/>
      <point x="218" y="528" type="curve" smooth="yes"/>
      <point x="297" y="528"/>
      <point x="345" y="485"/>
      <point x="362" y="436" type="curve"/>
    </contour>
    <contour>
      <point x="219" y="500" type="curve" smooth="yes"/>
      <point x="145" y="500"/>
      <point x="104" y="436"/>
      <point x="104" y="366" type="curve" smooth="yes"/>
      <point x="104" y="299"/>
      <point x="104" y="224"/>
      <point x="104" y="157" type="curve" smooth="yes"/>
      <point x="104" y="83"/>
      <point x="138" y="20"/>
      <point x="231" y="20" type="curve" smooth="yes"/>
      <point x="311" y="20"/>
      <point x="341" y="90"/>
      <point x="362" y="145" type="curve"/>
      <point x="362" y="381" type="line"/>
      <point x="349" y="428"/>
      <point x="313" y="500"/>
    </contour>
  </outline>
</glyph>
<glyph name="e" format="2">
  <advance width="450"/>
  <unicode hex="0065"/>
  <anchor x="314" y="687" name="AccentCenter"/>
  <outline>
    <contour>
      <point x="223" y="528" type="curve" smooth="yes"/>
      <point x="342" y="528"/>
      <point x="389" y="439"/>
      <point x="389" y="349" type="curve" smooth="yes"/>
      <point x="389" y="348"/>
      <point x="389" y="284"/>
      <point x="389" y="283" type="curve" smooth="yes"/>
      <point x="389" y="268"/>
      <point x="386" y="263"/>
      <point x="384" y="257" type="curve"/>
      <point x="88" y="257" type="line"/>
      <point x="88" y="256"/>
      <point x="88" y="245"/>
      <point x="88" y="189" type="curve" smooth="yes"/>
      <point x="88" y="97"/>
      <point x="120" y="20"/>
      <point x="231" y="20" type="curve" smooth="yes"/>
      <point x="301" y="20"/>
      <point x="338" y="45"/>
      <point x="381" y="73" type="curve"/>
      <point x="395" y="47" type="line"/>
      <point x="358" y="22"/>
      <point x="314" y="-8"/>
      <point x="229" y="-8" type="curve" smooth="yes"/>
      <point x="103" y="-8"/>
      <point x="56" y="70"/>
      <point x="56" y="189" type="curve" smooth="yes"/>
      <point x="56" y="259"/>
      <point x="56" y="270"/>
      <point x="56" y="349" type="curve" smooth="yes"/>
      <point x="57" y="439"/>
      <point x="98" y="528"/>
    </contour>
    <contour>
      <point x="222" y="500" type="curve" smooth="yes"/>
      <point x="126" y="500"/>
      <point x="88" y="429"/>
      <point x="88" y="349" type="curve" smooth="yes"/>
      <point x="88" y="286"/>
      <point x="88" y="284"/>
      <point x="88" y="283" type="curve"/>
      <point x="355" y="283" type="line"/>
      <point x="355" y="348" type="line" smooth="yes"/>
      <point x="355" y="432"/>
      <point x="315" y="500"/>
    </contour>
  </outline>
</glyph>
<glyph name="f" format="2">
  <advance width="450"/>
  <unicode hex="0066"/>
  <outline>
    <contour>
      <point x="312" y="780" type="curve" smooth="yes"/>
      <point x="355" y="780"/>
      <point x="385" y="773"/>
      <point x="422" y="763" type="curve"/>
      <point x="416" y="734" type="line"/>
      <point x="377" y="745"/>
      <point x="352" y="751"/>
      <point x="315" y="751" type="curve" smooth="yes"/>
      <point x="247" y="751"/>
      <point x="208" y="710"/>
      <point x="208" y="646" type="curve" smooth="yes"/>
      <point x="208" y="520" type="line"/>
      <point x="368" y="520" type="line"/>
      <point x="368" y="492" type="line"/>
      <point x="208" y="492" type="line"/>
      <point x="208" y="0" type="line"/>
      <point x="176" y="0" type="line"/>
      <point x="176" y="492" type="line"/>
      <point x="40" y="492" type="line"/>
      <point x="40" y="520" type="line"/>
      <point x="176" y="520" type="line"/>
      <point x="176" y="646" type="line" smooth="yes"/>
      <point x="176" y="717"/>
      <point x="216" y="780"/>
    </contour>
  </outline>
</glyph>
<glyph name="g" format="2">
  <advance width="450"/>
  <unicode hex="0067"/>
  <outline>
    <contour>
      <point x="191" y="528" type="curve" smooth="yes"/>
      <point x="235" y="528"/>
      <point x="260" y="517"/>
      <point x="281" y="506" type="curve"/>
      <point x="409" y="520" type="line"/>
      <point x="431" y="520" type="line"/>
      <point x="431" y="486" type="line"/>
      <point x="307" y="486" type="line"/>
      <point x="338" y="460"/>
      <point x="355" y="421"/>
      <point x="355" y="383" type="curve" smooth="yes"/>
      <point x="355" y="383"/>
      <point x="355" y="347"/>
      <point x="355" y="347" type="curve" smooth="yes"/>
      <point x="355" y="260"/>
      <point x="296" y="202"/>
      <point x="191" y="202" type="curve" smooth="yes"/>
      <point x="155" y="202"/>
      <point x="132" y="211"/>
      <point x="132" y="211" type="curve"/>
      <point x="65" y="109" type="line"/>
      <point x="310" y="73" type="line" smooth="yes"/>
      <point x="376" y="63"/>
      <point x="429" y="33"/>
      <point x="429" y="-47" type="curve" smooth="yes"/>
      <point x="429" y="-48"/>
      <point x="429" y="-65"/>
      <point x="429" y="-66" type="curve" smooth="yes"/>
      <point x="429" y="-133"/>
      <point x="377" y="-192"/>
      <point x="236" y="-192" type="curve" smooth="yes"/>
      <point x="133" y="-192"/>
      <point x="70" y="-156"/>
      <point x="19" y="-120" type="curve"/>
      <point x="19" y="-93" type="line"/>
      <point x="127" y="71" type="line"/>
      <point x="32" y="84" type="line"/>
      <point x="33" y="117" type="line"/>
      <point x="102" y="222" type="line"/>
      <point x="47" y="250"/>
      <point x="26" y="279"/>
      <point x="26" y="347" type="curve" smooth="yes"/>
      <point x="26" y="347"/>
      <point x="26" y="361"/>
      <point x="26" y="383" type="curve" smooth="yes"/>
      <point x="26" y="454"/>
      <point x="83" y="528"/>
    </contour>
    <contour>
      <point x="160" y="66" type="line"/>
      <point x="160" y="66"/>
      <point x="47" y="-103"/>
      <point x="47" y="-103" type="curve"/>
      <point x="83" y="-131"/>
      <point x="154" y="-164"/>
      <point x="233" y="-164" type="curve" smooth="yes"/>
      <point x="356" y="-164"/>
      <point x="397" y="-117"/>
      <point x="397" y="-66" type="curve" smooth="yes"/>
      <point x="397" y="-65"/>
      <point x="397" y="-48"/>
      <point x="397" y="-47" type="curve" smooth="yes"/>
      <point x="397" y="13"/>
      <point x="360" y="34"/>
      <point x="308" y="43" type="curve" smooth="yes"/>
    </contour>
    <contour>
      <point x="191" y="500" type="curve" smooth="yes"/>
      <point x="97" y="500"/>
      <point x="58" y="439"/>
      <point x="58" y="383" type="curve" smooth="yes"/>
      <point x="58" y="383"/>
      <point x="58" y="347"/>
      <point x="58" y="347" type="curve" smooth="yes"/>
      <point x="58" y="272"/>
      <point x="93" y="228"/>
      <point x="191" y="228" type="curve" smooth="yes"/>
      <point x="268" y="228"/>
      <point x="323" y="267"/>
      <point x="323" y="347" type="curve" smooth="yes"/>
      <point x="323" y="347"/>
      <point x="323" y="361"/>
      <point x="323" y="383" type="curve" smooth="yes"/>
      <point x="323" y="451"/>
      <point x="269" y="500"/>
    </contour>
  </outline>
</glyph>
<glyph name="h" format="2">
  <advance width="450"/>
  <unicode hex="0068"/>
  <outline>
    <contour>
      <point x="72" y="706" type="line"/>
      <point x="104" y="706" type="line"/>
      <point x="104" y="434" type="line"/>
      <point x="136" y="481"/>
      <point x="178" y="528"/>
      <point x="266" y="528" type="curve" smooth="yes"/>
      <point x="360" y="528"/>
      <point x="401" y="467"/>
      <point x="401" y="389" type="curve" smooth="yes"/>
      <point x="401" y="0" type="line"/>
      <point x="369" y="0" type="line"/>
      <point x="369" y="389" type="line" smooth="yes"/>
      <point x="369" y="450"/>
      <point x="343" y="500"/>
      <point x="266" y="500" type="curve" smooth="yes"/>
      <point x="174" y="500"/>
      <point x="137" y="448"/>
      <point x="104" y="398" type="curve"/>
      <point x="104" y="0" type="line"/>
      <point x="72" y="0" type="line"/>
    </contour>
  </outline>
</glyph>
<glyph name="i" format="2">
  <advance width="450"/>
  <unicode hex="0069"/>
  <outline>
    <contour>
      <point x="211" y="731" type="curve" smooth="yes"/>
      <point x="233" y="731"/>
      <point x="250" y="714"/>
      <point x="250" y="692" type="curve" smooth="yes"/>
      <point x="250" y="670"/>
      <point x="233" y="654"/>
      <point x="211" y="654" type="curve" smooth="yes"/>
      <point x="189" y="654"/>
      <point x="173" y="670"/>
      <point x="173" y="692" type="curve" smooth="yes"/>
      <point x="173" y="714"/>
      <point x="189" y="731"/>
    </contour>
    <component base="dotlessi" xOffset="-4"/>
  </outline>
</glyph>
<glyph name="j" format="2">
  <advance width="450"/>
  <unicode hex="006A"/>
  <outline>
    <contour>
      <point x="311" y="731" type="curve" smooth="yes"/>
      <point x="336" y="731"/>
      <point x="350" y="710"/>
      <point x="350" y="693" type="curve" smooth="yes"/>
      <point x="350" y="673"/>
      <point x="336" y="654"/>
      <point x="311" y="654" type="curve" smooth="yes"/>
      <point x="292" y="654"/>
      <point x="274" y="667"/>
      <point x="274" y="693" type="curve" smooth="yes"/>
      <point x="274" y="717"/>
      <point x="292" y="731"/>
    </contour>
    <contour>
      <point x="112" y="520" type="line"/>
      <point x="330" y="520" type="line"/>
      <point x="330" y="-33" type="line" smooth="yes"/>
      <point x="330" y="-129"/>
      <point x="274" y="-191"/>
      <point x="186" y="-191" type="curve" smooth="yes"/>
      <point x="109" y="-191"/>
      <point x="83" y="-172"/>
      <point x="29" y="-137" type="curve"/>
      <point x="44" y="-112" type="line"/>
      <point x="100" y="-151"/>
      <point x="122" y="-163"/>
      <point x="184" y="-163" type="curve" smooth="yes"/>
      <point x="255" y="-163"/>
      <point x="298" y="-118"/>
      <point x="298" y="-39" type="curve" smooth="yes"/>
      <point x="298" y="492" type="line"/>
      <point x="112" y="492" type="line"/>
    </contour>
  </outline>
</glyph>
<glyph name="k" format="2">
  <advance width="450"/>
  <unicode hex="006B"/>
  <outline>
    <contour>
      <point x="72" y="708" type="line"/>
      <point x="104" y="708" type="line"/>
      <point x="104" y="291" type="line"/>
      <point x="208" y="291" type="line"/>
      <point x="372" y="521" type="line"/>
      <point x="407" y="521" type="line"/>
      <point x="236" y="276" type="line"/>
      <point x="403" y="0" type="line"/>
      <point x="368" y="0" type="line"/>
      <point x="208" y="263" type="line"/>
      <point x="104" y="263" type="line"/>
      <point x="104" y="0" type="line"/>
      <point x="72" y="0" type="line"/>
    </contour>
  </outline>
</glyph>
<glyph name="l" format="2">
  <advance width="450"/>
  <unicode hex="006C"/>
  <outline>
    <contour>
      <point x="40" y="724" type="line"/>
      <point x="223" y="724" type="line"/>
      <point x="223" y="28" type="line"/>
      <point x="402" y="28" type="line"/>
      <point x="402" y="0" type="line"/>
      <point x="191" y="0" type="line"/>
      <point x="191" y="696" type="line"/>
      <point x="40" y="696" type="line"/>
    </contour>
  </outline>
</glyph>
<glyph name="m" format="2">
  <advance width="450"/>
  <unicode hex="006D"/>
  <outline>
    <contour>
      <point x="56" y="520" type="line"/>
      <point x="85" y="520" type="line"/>
      <point x="88" y="451" type="line"/>
      <point x="96" y="492"/>
      <point x="123" y="528"/>
      <point x="168" y="528" type="curve" smooth="yes"/>
      <point x="216" y="528"/>
      <point x="236" y="495"/>
      <point x="236" y="434" type="curve"/>
      <point x="242" y="489"/>
      <point x="271" y="528"/>
      <point x="324" y="528" type="curve" smooth="yes"/>
      <point x="370" y="528"/>
      <point x="394" y="495"/>
      <point x="394" y="433" type="curve" smooth="yes"/>
      <point x="394" y="0" type="line"/>
      <point x="363" y="0" type="line"/>
      <point x="363" y="433" type="line" smooth="yes"/>
      <point x="363" y="463"/>
      <point x="361" y="500"/>
      <point x="321" y="500" type="curve" smooth="yes"/>
      <point x="269" y="500"/>
      <point x="249" y="440"/>
      <point x="241" y="391" type="curve"/>
      <point x="241" y="0" type="line"/>
      <point x="209" y="0" type="line"/>
      <point x="209" y="433" type="line" smooth="yes"/>
      <point x="209" y="478"/>
      <point x="198" y="500"/>
      <point x="168" y="500" type="curve" smooth="yes"/>
      <point x="128" y="500"/>
      <point x="105" y="468"/>
      <point x="88" y="416" type="curve"/>
      <point x="88" y="0" type="line"/>
      <point x="56" y="0" type="line"/>
    </contour>
  </outline>
</glyph>
<glyph name="n" format="2">
  <advance width="450"/>
  <unicode hex="006E"/>
  <anchor x="254" y="687" name="AccentCenter"/>
  <outline>
    <contour>
      <point x="72" y="519" type="line"/>
      <point x="92" y="519" type="line"/>
      <point x="104" y="420" type="line"/>
      <point x="123" y="475"/>
      <point x="167" y="528"/>
      <point x="259" y="528" type="curve"/>
      <point x="323" y="528"/>
      <point x="394" y="497"/>
      <point x="394" y="388" type="curve"/>
      <point x="394" y="0" type="line"/>
      <point x="362" y="0" type="line"/>
      <point x="362" y="388" type="line"/>
      <point x="362" y="469"/>
      <point x="313" y="500"/>
      <point x="259" y="500" type="curve"/>
      <point x="176" y="500"/>
      <point x="137" y="455"/>
      <point x="104" y="391" type="curve"/>
      <point x="104" y="-1" type="line"/>
      <point x="72" y="-1" type="line"/>
    </contour>
  </outline>
</glyph>
<glyph name="o" format="2">
  <advance width="450"/>
  <unicode hex="006F"/>
  <anchor x="317" y="687" name="AccentCenter"/>
  <outline>
    <contour>
      <point x="227" y="528" type="curve" smooth="yes"/>
      <point x="340" y="528"/>
      <point x="394" y="451"/>
      <point x="394" y="340" type="curve" smooth="yes"/>
      <point x="394" y="317"/>
      <point x="394" y="190"/>
      <point x="394" y="180" type="curve" smooth="yes"/>
      <point x="394" y="63"/>
      <point x="341" y="-8"/>
      <point x="227" y="-8" type="curve" smooth="yes"/>
      <point x="111" y="-8"/>
      <point x="56" y="63"/>
      <point x="56" y="180" type="curve" smooth="yes"/>
      <point x="56" y="190"/>
      <point x="56" y="317"/>
      <point x="56" y="339" type="curve" smooth="yes"/>
      <point x="56" y="451"/>
      <point x="112" y="528"/>
    </contour>
    <contour>
      <point x="227" y="500" type="curve" smooth="yes"/>
      <point x="123" y="500"/>
      <point x="88" y="424"/>
      <point x="88" y="340" type="curve" smooth="yes"/>
      <point x="88" y="317"/>
      <point x="88" y="190"/>
      <point x="88" y="180" type="curve" smooth="yes"/>
      <point x="88" y="86"/>
      <point x="122" y="20"/>
      <point x="227" y="20" type="curve" smooth="yes"/>
      <point x="330" y="20"/>
      <point x="362" y="86"/>
      <point x="362" y="180" type="curve" smooth="yes"/>
      <point x="362" y="190"/>
      <point x="362" y="317"/>
      <point x="362" y="340" type="curve" smooth="yes"/>
      <point x="362" y="429"/>
      <point x="329" y="500"/>
    </contour>
  </outline>
</glyph>
<glyph name="p" format="2">
  <advance width="450"/>
  <unicode hex="0070"/>
  <outline>
    <contour>
      <point x="72" y="520" type="line"/>
      <point x="100" y="520" type="line"/>
      <point x="102" y="417" type="line"/>
      <point x="126" y="486"/>
      <point x="160" y="528"/>
      <point x="239" y="528" type="curve" smooth="yes"/>
      <point x="334" y="528"/>
      <point x="394" y="468"/>
      <point x="394" y="363" type="curve" smooth="yes"/>
      <point x="394" y="296"/>
      <point x="394" y="221"/>
      <point x="394" y="154" type="curve" smooth="yes"/>
      <point x="394" y="52"/>
      <point x="333" y="-8"/>
      <point x="248" y="-8" type="curve" smooth="yes"/>
      <point x="169" y="-8"/>
      <point x="121" y="35"/>
      <point x="104" y="84" type="curve"/>
      <point x="104" y="-196" type="line"/>
      <point x="72" y="-196" type="line"/>
    </contour>
    <contour>
      <point x="235" y="500" type="curve" smooth="yes"/>
      <point x="155" y="500"/>
      <point x="125" y="430"/>
      <point x="104" y="375" type="curve"/>
      <point x="104" y="139" type="line"/>
      <point x="117" y="92"/>
      <point x="153" y="20"/>
      <point x="247" y="20" type="curve" smooth="yes"/>
      <point x="321" y="20"/>
      <point x="362" y="84"/>
      <point x="362" y="154" type="curve" smooth="yes"/>
      <point x="362" y="221"/>
      <point x="362" y="296"/>
      <point x="362" y="363" type="curve" smooth="yes"/>
      <point x="362" y="437"/>
      <point x="328" y="500"/>
    </contour>
  </outline>
</glyph>
<glyph name="q" format="2">
  <advance width="450"/>
  <unicode hex="0071"/>
  <outline>
    <contour>
      <point x="366" y="520" type="line"/>
      <point x="394" y="520" type="line"/>
      <point x="394" y="-196" type="line"/>
      <point x="362" y="-196" type="line"/>
      <point x="362" y="84" type="line"/>
      <point x="345" y="35"/>
      <point x="297" y="-8"/>
      <point x="218" y="-8" type="curve" smooth="yes"/>
      <point x="133" y="-8"/>
      <point x="72" y="52"/>
      <point x="72" y="154" type="curve" smooth="yes"/>
      <point x="72" y="221"/>
      <point x="72" y="296"/>
      <point x="72" y="363" type="curve" smooth="yes"/>
      <point x="72" y="468"/>
      <point x="132" y="528"/>
      <point x="227" y="528" type="curve" smooth="yes"/>
      <point x="318" y="528"/>
      <point x="340" y="486"/>
      <point x="364" y="417" type="curve"/>
    </contour>
    <contour>
      <point x="231" y="500" type="curve" smooth="yes"/>
      <point x="138" y="500"/>
      <point x="104" y="437"/>
      <point x="104" y="363" type="curve" smooth="yes"/>
      <point x="104" y="296"/>
      <point x="104" y="221"/>
      <point x="104" y="154" type="curve" smooth="yes"/>
      <point x="104" y="84"/>
      <point x="145" y="20"/>
      <point x="219" y="20" type="curve" smooth="yes"/>
      <point x="313" y="20"/>
      <point x="349" y="92"/>
      <point x="362" y="139" type="curve"/>
      <point x="362" y="375" type="line"/>
      <point x="341" y="430"/>
      <point x="311" y="500"/>
    </contour>
  </outline>
</glyph>
<glyph name="r" format="2">
  <advance width="450"/>
  <unicode hex="0072"/>
  <outline>
    <contour>
      <point x="81" y="520" type="line"/>
      <point x="123" y="402" type="line"/>
      <point x="146" y="452"/>
      <point x="174" y="528"/>
      <point x="287" y="528" type="curve" smooth="yes"/>
      <point x="333" y="528"/>
      <point x="361" y="523"/>
      <point x="398" y="509" type="curve"/>
      <point x="388" y="480" type="line"/>
      <point x="350" y="497"/>
      <point x="319" y="500"/>
      <point x="288" y="500" type="curve" smooth="yes"/>
      <point x="186" y="500"/>
      <point x="163" y="428"/>
      <point x="140" y="367" type="curve"/>
      <point x="140" y="0" type="line"/>
      <point x="108" y="0" type="line"/>
      <point x="108" y="369" type="line"/>
      <point x="46" y="520" type="line"/>
    </contour>
  </outline>
</glyph>
<glyph name="s" format="2">
  <advance width="450"/>
  <unicode hex="0073"/>
  <outline>
    <contour>
      <point x="228" y="528" type="curve" smooth="yes"/>
      <point x="293" y="528"/>
      <point x="321" y="514"/>
      <point x="382" y="471" type="curve"/>
      <point x="363" y="447" type="line"/>
      <point x="311" y="488"/>
      <point x="277" y="500"/>
      <point x="228" y="500" type="curve" smooth="yes"/>
      <point x="143" y="500"/>
      <point x="96" y="459"/>
      <point x="96" y="400" type="curve" smooth="yes"/>
      <point x="96" y="338"/>
      <point x="119" y="321"/>
      <point x="194" y="294" type="curve" smooth="yes"/>
      <point x="275" y="265" type="line" smooth="yes"/>
      <point x="335" y="244"/>
      <point x="397" y="216"/>
      <point x="397" y="122" type="curve" smooth="yes"/>
      <point x="397" y="31"/>
      <point x="317" y="-8"/>
      <point x="230" y="-8" type="curve" smooth="yes"/>
      <point x="132" y="-8"/>
      <point x="100" y="16"/>
      <point x="47" y="63" type="curve"/>
      <point x="65" y="86" type="line"/>
      <point x="110" y="47"/>
      <point x="146" y="20"/>
      <point x="228" y="20" type="curve" smooth="yes"/>
      <point x="302" y="20"/>
      <point x="365" y="47"/>
      <point x="365" y="122" type="curve" smooth="yes"/>
      <point x="365" y="190"/>
      <point x="339" y="210"/>
      <point x="264" y="238" type="curve" smooth="yes"/>
      <point x="183" y="268" type="line" smooth="yes"/>
      <point x="103" y="298"/>
      <point x="66" y="324"/>
      <point x="66" y="399" type="curve" smooth="yes"/>
      <point x="66" y="465"/>
      <point x="112" y="528"/>
    </contour>
  </outline>
</glyph>
<glyph name="t" format="2">
  <advance width="450"/>
  <unicode hex="0074"/>
  <outline>
    <contour>
      <point x="180" y="671" type="line"/>
      <point x="212" y="687" type="line"/>
      <point x="212" y="520" type="line"/>
      <point x="366" y="520" type="line"/>
      <point x="366" y="492" type="line"/>
      <point x="212" y="492" type="line"/>
      <point x="212" y="111" type="line" smooth="yes"/>
      <point x="212" y="45"/>
      <point x="236" y="19"/>
      <point x="293" y="19" type="curve"/>
      <point x="338" y="19"/>
      <point x="351" y="24"/>
      <point x="396" y="44" type="curve"/>
      <point x="406" y="19" type="line"/>
      <point x="372" y="2"/>
      <point x="340" y="-8"/>
      <point x="294" y="-8" type="curve" smooth="yes"/>
      <point x="214" y="-8"/>
      <point x="180" y="29"/>
      <point x="180" y="111" type="curve" smooth="yes"/>
      <point x="180" y="492" type="line"/>
      <point x="47" y="492" type="line"/>
      <point x="47" y="520" type="line"/>
      <point x="180" y="520" type="line"/>
    </contour>
  </outline>
</glyph>
<glyph name="u" format="2">
  <advance width="450"/>
  <unicode hex="0075"/>
  <anchor x="216" y="687" name="AccentCenter"/>
  <outline>
    <contour>
      <point x="56" y="519" type="line"/>
      <point x="88" y="519" type="line"/>
      <point x="88" y="131" type="line"/>
      <point x="88" y="50"/>
      <point x="137" y="19"/>
      <point x="191" y="19" type="curve"/>
      <point x="274" y="19"/>
      <point x="313" y="64"/>
      <point x="346" y="128" type="curve"/>
      <point x="346" y="520" type="line"/>
      <point x="378" y="520" type="line"/>
      <point x="378" y="0" type="line"/>
      <point x="358" y="0" type="line"/>
      <point x="346" y="99" type="line"/>
      <point x="327" y="44"/>
      <point x="283" y="-9"/>
      <point x="191" y="-9" type="curve"/>
      <point x="127" y="-9"/>
      <point x="56" y="22"/>
      <point x="56" y="131" type="curve"/>
    </contour>
  </outline>
</glyph>
<glyph name="v" format="2">
  <advance width="450"/>
  <unicode hex="0076"/>
  <outline>
    <contour>
      <point x="30" y="520" type="line"/>
      <point x="68" y="520" type="line"/>
      <point x="228" y="42" type="line"/>
      <point x="381" y="520" type="line"/>
      <point x="420" y="520" type="line"/>
      <point x="242" y="0" type="line"/>
      <point x="213" y="0" type="line"/>
    </contour>
  </outline>
</glyph>
<glyph name="w" format="2">
  <advance width="450"/>
  <unicode hex="0077"/>
  <outline>
    <contour>
      <point x="12" y="520" type="line"/>
      <point x="50" y="520" type="line"/>
      <point x="101" y="48" type="line"/>
      <point x="202" y="462" type="line"/>
      <point x="249" y="462" type="line"/>
      <point x="344" y="48" type="line"/>
      <point x="401" y="520" type="line"/>
      <point x="438" y="520" type="line"/>
      <point x="365" y="0" type="line"/>
      <point x="325" y="0" type="line"/>
      <point x="226" y="430" type="line"/>
      <point x="118" y="0" type="line"/>
      <point x="82" y="0" type="line"/>
    </contour>
  </outline>
</glyph>
<glyph name="x" format="2">
  <advance width="450"/>
  <unicode hex="0078"/>
  <outline>
    <contour>
      <point x="32" y="520" type="line"/>
      <point x="68" y="520" type="line"/>
      <point x="224" y="288" type="line"/>
      <point x="382" y="520" type="line"/>
      <point x="418" y="520" type="line"/>
      <point x="241" y="261" type="line"/>
      <point x="418" y="0" type="line"/>
      <point x="382" y="0" type="line"/>
      <point x="224" y="235" type="line"/>
      <point x="68" y="0" type="line"/>
      <point x="32" y="0" type="line"/>
      <point x="206" y="261" type="line"/>
    </contour>
  </outline>
</glyph>
<glyph name="y" format="2">
  <advance width="450"/>
  <unicode hex="0079"/>
  <anchor x="223" y="687" name="AccentCenter"/>
  <outline>
    <contour>
      <point x="29" y="520" type="line"/>
      <point x="65" y="520" type="line"/>
      <point x="224" y="72" type="line"/>
      <point x="228" y="45" type="line"/>
      <point x="231" y="72" type="line"/>
      <point x="388" y="520" type="line"/>
      <point x="422" y="520" type="line"/>
      <point x="173" y="-192" type="line"/>
      <point x="134" y="-192" type="line"/>
      <point x="211" y="15" type="line"/>
    </contour>
  </outline>
</glyph>
<glyph name="z" format="2">
  <advance width="450"/>
  <unicode hex="007A"/>
  <outline>
    <contour>
      <point x="61" y="520" type="line"/>
      <point x="394" y="520" type="line"/>
      <point x="394" y="492" type="line"/>
      <point x="94" y="28" type="line"/>
      <point x="394" y="28" type="line"/>
      <point x="394" y="0" type="line"/>
      <point x="56" y="0" type="line"/>
      <point x="56" y="28" type="line"/>
      <point x="355" y="492" type="line"/>
      <point x="61" y="492" type="line"/>
    </contour>
  </outline>
</glyph>
<glyph name="braceleft" format="2">
  <advance width="450"/>
  <unicode hex="007B"/>
  <outline>
    <contour>
      <point x="268" y="800" type="curve"/>
      <point x="376" y="800" type="line"/>
      <point x="376" y="772" type="line"/>
      <point x="270" y="772" type="line"/>
      <point x="230" y="772"/>
      <point x="206" y="746"/>
      <point x="206" y="708" type="curve"/>
      <point x="258" y="455" type="line"/>
      <point x="253" y="408"/>
      <point x="231" y="387"/>
      <point x="201" y="370" type="curve"/>
      <point x="233" y="352"/>
      <point x="253" y="332"/>
      <point x="258" y="285" type="curve"/>
      <point x="206" y="32" type="line"/>
      <point x="206" y="-6"/>
      <point x="230" y="-32"/>
      <point x="270" y="-32" type="curve"/>
      <point x="376" y="-32" type="line"/>
      <point x="376" y="-60" type="line"/>
      <point x="268" y="-60" type="line"/>
      <point x="208" y="-60"/>
      <point x="173" y="-17"/>
      <point x="173" y="32" type="curve"/>
      <point x="223" y="284" type="line"/>
      <point x="222" y="324"/>
      <point x="182" y="352"/>
      <point x="159" y="356" type="curve"/>
      <point x="59" y="356" type="line"/>
      <point x="59" y="384" type="line"/>
      <point x="159" y="384" type="line"/>
      <point x="182" y="388"/>
      <point x="222" y="416"/>
      <point x="223" y="456" type="curve"/>
      <point x="173" y="708" type="line"/>
      <point x="173" y="757"/>
      <point x="208" y="800"/>
    </contour>
  </outline>
</glyph>
<glyph name="braceright" format="2">
  <advance width="450"/>
  <unicode hex="007D"/>
  <outline>
    <contour>
      <point x="182" y="800" type="line"/>
      <point x="242" y="800"/>
      <point x="277" y="757"/>
      <point x="277" y="708" type="curve"/>
      <point x="227" y="456" type="line"/>
      <point x="228" y="416"/>
      <point x="268" y="388"/>
      <point x="291" y="384" type="curve"/>
      <point x="391" y="384" type="line"/>
      <point x="391" y="356" type="line"/>
      <point x="291" y="356" type="line"/>
      <point x="268" y="352"/>
      <point x="228" y="324"/>
      <point x="227" y="284" type="curve"/>
      <point x="277" y="32" type="line"/>
      <point x="277" y="-17"/>
      <point x="242" y="-60"/>
      <point x="182" y="-60" type="curve"/>
      <point x="74" y="-60" type="line"/>
      <point x="74" y="-32" type="line"/>
      <point x="180" y="-32" type="line"/>
      <point x="220" y="-32"/>
      <point x="244" y="-6"/>
      <point x="244" y="32" type="curve"/>
      <point x="192" y="285" type="line"/>
      <point x="197" y="332"/>
      <point x="217" y="352"/>
      <point x="249" y="370" type="curve"/>
      <point x="219" y="387"/>
      <point x="197" y="408"/>
      <point x="192" y="455" type="curve"/>
      <point x="244" y="708" type="line"/>
      <point x="244" y="746"/>
      <point x="220" y="772"/>
      <point x="180" y="772" type="curve"/>
      <point x="74" y="772" type="line"/>
      <point x="74" y="800" type="line"/>
    </contour>
  </outline>
</glyph>
<glyph name="dotlessi" format="2">
  <advance width="450"/>
  <unicode hex="0131"/>
  <anchor x="217" y="687" name="AccentCenter"/>
  <outline>
    <contour>
      <point x="62" y="520" type="line"/>
      <point x="232" y="520" type="line"/>
      <point x="232" y="28" type="line"/>
      <point x="385" y="28" type="line"/>
      <point x="385" y="0" type="line"/>
      <point x="200" y="0" type="line"/>
      <point x="200" y="492" type="line"/>
      <point x="62" y="492" type="line"/>
    </contour>
  </outline>
</glyph>
<glyph name="a.ss01" format="2">
  <advance width="450"/>
  <outline>
    <contour>
      <point x="224" y="528" type="curve" smooth="yes"/>
      <point x="337" y="528"/>
      <point x="386" y="474"/>
      <point x="386" y="345" type="curve" smooth="yes"/>
      <point x="386" y="0" type="line"/>
      <point x="386" y="0"/>
      <point x="354" y="0"/>
      <point x="354" y="0" type="curve" smooth="yes"/>
      <point x="354" y="0"/>
      <point x="354" y="101"/>
      <point x="354" y="101" type="curve"/>
      <point x="326" y="48"/>
      <point x="290" y="-8"/>
      <point x="201" y="-8" type="curve" smooth="yes"/>
      <point x="97" y="-8"/>
      <point x="45" y="45"/>
      <point x="45" y="137" type="curve" smooth="yes"/>
      <point x="45" y="246"/>
      <point x="113" y="286"/>
      <point x="214" y="286" type="curve" smooth="yes"/>
      <point x="354" y="286" type="line"/>
      <point x="354" y="359" type="line" smooth="yes"/>
      <point x="354" y="453"/>
      <point x="318" y="500"/>
      <point x="224" y="500" type="curve" smooth="yes"/>
      <point x="178" y="500"/>
      <point x="140" y="488"/>
      <point x="93" y="469" type="curve"/>
      <point x="83" y="495" type="line"/>
      <point x="131" y="515"/>
      <point x="168" y="528"/>
    </contour>
    <contour>
      <point x="354" y="258" type="line"/>
      <point x="215" y="258" type="line" smooth="yes"/>
      <point x="121" y="258"/>
      <point x="77" y="221"/>
      <point x="77" y="137" type="curve" smooth="yes"/>
      <point x="77" y="61"/>
      <point x="115" y="20"/>
      <point x="202" y="20" type="curve" smooth="yes"/>
      <point x="282" y="20"/>
      <point x="323" y="78"/>
      <point x="354" y="141" type="curve"/>
    </contour>
  </outline>
</glyph>
<glyph name="r.ss01" format="2">
  <advance width="450"/>
  <outline>
    <contour>
      <point x="27" y="520" type="line"/>
      <point x="162" y="520" type="line"/>
      <point x="162" y="362" type="line"/>
      <point x="179" y="419"/>
      <point x="214" y="528"/>
      <point x="334" y="528" type="curve" smooth="yes"/>
      <point x="367" y="528"/>
      <point x="401" y="518"/>
      <point x="414" y="512" type="curve"/>
      <point x="405" y="487" type="line"/>
      <point x="392" y="492"/>
      <point x="363" y="501"/>
      <point x="332" y="501" type="curve" smooth="yes"/>
      <point x="225" y="501"/>
      <point x="187" y="390"/>
      <point x="162" y="317" type="curve"/>
      <point x="162" y="0" type="line"/>
      <point x="130" y="0" type="line"/>
      <point x="130" y="492" type="line"/>
      <point x="32" y="492" type="line"/>
    </contour>
  </outline>
</glyph>
